# xmcd
#
# Track frame offsets:
#  150
#  20700
#  35850
#  57151
#  78525
#  94950
#  113850
#  145126
#  166425
#  186825
#  209475
#  233935
#  252153
#  283650
#  303003
#  321600
#
# Disc length: 4558 seconds
#
# Revision: 0
# Processed by: cddbd v1.5.1PL2 Copyright (c) Steve Scherf et al.
# Submitted via: Collectorz.com_Music_Collector 6.11
#
DISCID=f011cc10
DTITLE=Various Artist - The Swoon Collection - Gold Edition [CD2)
DYEAR=2005
DGENRE=Classical
TTITLE0=Johannes Ockeghem - Deo Gratis
TTITLE1=Handel - Pifa (Pastoral Symphony)
TTITLE2=Godard - Oh! Ne T'eveille Pas Encore
TTITLE3=Traditional - The Lass of Patie's Mill
TTITLE4=Hocking - Rodolfo's Dream
TTITLE5=Caccini - Ave Maria
TTITLE6=Brahms - Intermezzo in A Major, Op. 118 No. 2
TTITLE7=Albinoni - Adagio from Oboe Concerto in D Minor, Op. 9 No. 2 (R454)
TTITLE8=Guedron - Cesses Mortels de Soupirer
TTITLE9=Granados - Spanish Dance No. 5
TTITLE10=Korngold - Garden Scene
TTITLE11=A Gabrielli - O Sacrum Convivium
TTITLE12=R Strauss - Traumerei am Kamin
TTITLE13=Gluck - Melodie
TTITLE14=Edwards - Intermezzo Quasi Cadenza
TTITLE15=Monteverdi - Pur Ti Miro
EXTD=
EXTT0=
EXTT1=
EXTT2=
EXTT3=
EXTT4=
EXTT5=
EXTT6=
EXTT7=
EXTT8=
EXTT9=
EXTT10=
EXTT11=
EXTT12=
EXTT13=
EXTT14=
EXTT15=
PLAYORDER=
